<svg width="143" height="24" viewBox="0 0 143 24" fill="none" xmlns="http://www.w3.org/2000/svg">
<path d="M8.09375 10.7031C8.20833 10.8698 8.375 10.974 8.59375 11.0156C8.82292 11.0573 9.01562 11.0781 9.17188 11.0781H9.28125C9.30208 11.0677 9.34896 11.0521 9.42188 11.0312C9.49479 11 9.57292 10.974 9.65625 10.9531C9.73958 10.9323 9.8125 10.9115 9.875 10.8906C9.94792 10.8698 9.99479 10.8594 10.0156 10.8594C10.2344 10.7969 10.4948 10.75 10.7969 10.7188C11.099 10.6771 11.3542 10.599 11.5625 10.4844C11.5833 10.4635 11.6406 10.4219 11.7344 10.3594C11.8281 10.2969 11.9323 10.2292 12.0469 10.1562C12.1719 10.0729 12.2865 9.99479 12.3906 9.92188C12.5052 9.83854 12.5885 9.78125 12.6406 9.75C12.6615 9.73958 12.7031 9.70312 12.7656 9.64062C12.8281 9.56771 12.8646 9.52604 12.875 9.51562C12.9688 9.36979 13.0625 9.20833 13.1562 9.03125C13.2604 8.85417 13.3646 8.69792 13.4688 8.5625C13.4896 8.52083 13.5208 8.47917 13.5625 8.4375C13.6146 8.375 13.6667 8.32812 13.7188 8.29688C13.7292 8.29688 13.7396 8.27083 13.75 8.21875C13.7708 8.16667 13.7865 8.10417 13.7969 8.03125C13.8073 7.95833 13.8125 7.89062 13.8125 7.82812C13.8229 7.76562 13.8281 7.72396 13.8281 7.70312C13.9219 7.29688 14 6.89583 14.0625 6.5C14.1354 6.09375 14.1719 5.67188 14.1719 5.23438V4.375C14.0885 4.3125 14.0156 4.23958 13.9531 4.15625C13.901 4.0625 13.849 3.96875 13.7969 3.875C13.7552 3.78125 13.7083 3.6875 13.6562 3.59375C13.6042 3.48958 13.5417 3.39062 13.4688 3.29688C13.4271 3.25521 13.3542 3.17708 13.25 3.0625C13.1562 2.94792 13.0521 2.82812 12.9375 2.70312C12.8229 2.57812 12.7083 2.46354 12.5938 2.35938C12.4896 2.24479 12.4115 2.16146 12.3594 2.10938C12.2135 2.07812 12.026 2.04688 11.7969 2.01562C11.5781 1.98438 11.3802 1.94271 11.2031 1.89062C10.9844 1.81771 10.7812 1.73958 10.5938 1.65625C10.4062 1.57292 10.1927 1.53125 9.95312 1.53125C9.77604 1.53125 9.57292 1.54167 9.34375 1.5625C9.11458 1.58333 8.94271 1.64583 8.82812 1.75C8.58854 1.9375 8.41146 2.125 8.29688 2.3125C8.18229 2.48958 8.09896 2.67708 8.04688 2.875C8.00521 3.0625 7.97917 3.27083 7.96875 3.5C7.96875 3.72917 7.96354 3.98438 7.95312 4.26562C7.95312 4.30729 7.94792 4.40625 7.9375 4.5625C7.92708 4.70833 7.91667 4.86979 7.90625 5.04688C7.89583 5.21354 7.88542 5.375 7.875 5.53125C7.86458 5.6875 7.85938 5.78646 7.85938 5.82812C7.85938 5.95312 7.85417 6.13542 7.84375 6.375C7.84375 6.61458 7.84375 6.86979 7.84375 7.14062C7.84375 7.41146 7.83854 7.67708 7.82812 7.9375C7.82812 8.19792 7.82812 8.40625 7.82812 8.5625C7.82812 8.91667 7.84375 9.26042 7.875 9.59375C7.90625 9.92708 7.97917 10.2969 8.09375 10.7031ZM5.6875 23C5.07292 23 4.46354 23.0156 3.85938 23.0469C3.25521 23.0885 2.65625 23.1094 2.0625 23.1094C1.70833 23.1094 1.53125 22.9479 1.53125 22.625C1.53125 22.5104 1.54167 22.401 1.5625 22.2969C1.59375 22.1823 1.67188 22.0938 1.79688 22.0312C2.16146 22 2.55729 21.9583 2.98438 21.9062C3.41146 21.8438 3.80729 21.724 4.17188 21.5469C4.24479 21.5052 4.30729 21.4271 4.35938 21.3125C4.42188 21.1875 4.46875 21.0521 4.5 20.9062C4.54167 20.7604 4.57292 20.6198 4.59375 20.4844C4.61458 20.3385 4.63021 20.224 4.64062 20.1406V19.625V19.4062C4.64062 19.3646 4.64583 19.3021 4.65625 19.2188C4.66667 19.125 4.67708 19.026 4.6875 18.9219C4.70833 18.8177 4.72396 18.724 4.73438 18.6406C4.74479 18.5469 4.75 18.4844 4.75 18.4531C4.75 18.2969 4.75 18.0573 4.75 17.7344C4.75 17.401 4.75 17.0312 4.75 16.625C4.76042 16.2188 4.76562 15.7917 4.76562 15.3438C4.77604 14.8854 4.78125 14.4531 4.78125 14.0469C4.79167 13.6302 4.79688 13.2604 4.79688 12.9375C4.79688 12.6146 4.79688 12.375 4.79688 12.2188C4.79688 11.9375 4.79688 11.5938 4.79688 11.1875C4.79688 10.7812 4.79167 10.3542 4.78125 9.90625C4.78125 9.44792 4.77604 8.99479 4.76562 8.54688C4.76562 8.08854 4.76042 7.67708 4.75 7.3125C4.75 6.9375 4.75 6.625 4.75 6.375C4.75 6.125 4.75 5.97917 4.75 5.9375C4.75 5.80208 4.74479 5.57292 4.73438 5.25C4.73438 4.91667 4.72917 4.56771 4.71875 4.20312C4.71875 3.83854 4.70833 3.5 4.6875 3.1875C4.67708 2.86458 4.66146 2.64062 4.64062 2.51562C4.58854 2.41146 4.48438 2.32812 4.32812 2.26562C4.17188 2.20312 4 2.15625 3.8125 2.125C3.625 2.08333 3.4375 2.05729 3.25 2.04688C3.07292 2.02604 2.9375 2.01042 2.84375 2C2.78125 2 2.67188 1.99479 2.51562 1.98438C2.35938 1.97396 2.19271 1.96354 2.01562 1.95312C1.83854 1.94271 1.67188 1.93229 1.51562 1.92188C1.35938 1.91146 1.25521 1.90104 1.20312 1.89062C1.16146 1.86979 1.09375 1.8125 1 1.71875C0.916667 1.61458 0.864583 1.55208 0.84375 1.53125V1.375C0.84375 1.20833 0.880208 1.09896 0.953125 1.04688C1.02604 0.984375 1.14583 0.942708 1.3125 0.921875C1.44792 0.911458 1.68229 0.895833 2.01562 0.875C2.35938 0.854167 2.71875 0.833333 3.09375 0.8125C3.47917 0.78125 3.84375 0.755208 4.1875 0.734375C4.53125 0.713542 4.77083 0.703125 4.90625 0.703125C4.94792 0.703125 5.01042 0.703125 5.09375 0.703125C5.17708 0.692708 5.26562 0.6875 5.35938 0.6875C5.45312 0.6875 5.54688 0.6875 5.64062 0.6875C5.73438 0.677083 5.8125 0.671875 5.875 0.671875C6 0.651042 6.10417 0.635417 6.1875 0.625C6.27083 0.604167 6.34896 0.59375 6.42188 0.59375C6.57812 0.59375 6.88542 0.59375 7.34375 0.59375C7.80208 0.59375 8.33854 0.598958 8.95312 0.609375C9.57812 0.619792 10.2396 0.630208 10.9375 0.640625C11.6354 0.651042 12.3021 0.671875 12.9375 0.703125C12.9688 0.703125 13.0208 0.713542 13.0938 0.734375C13.1667 0.755208 13.2448 0.78125 13.3281 0.8125C13.4115 0.833333 13.4896 0.854167 13.5625 0.875C13.6354 0.895833 13.6875 0.911458 13.7188 0.921875C13.7292 0.921875 13.7604 0.932292 13.8125 0.953125C13.875 0.963542 13.9375 0.973958 14 0.984375C14.0625 0.994792 14.1198 1.01042 14.1719 1.03125C14.2344 1.04167 14.2708 1.04688 14.2812 1.04688C14.3125 1.05729 14.3698 1.09896 14.4531 1.17188C14.5469 1.23438 14.6406 1.30729 14.7344 1.39062C14.8281 1.46354 14.9115 1.53646 14.9844 1.60938C15.0677 1.68229 15.125 1.72917 15.1562 1.75C15.1562 1.78125 15.1823 1.80729 15.2344 1.82812C15.2969 1.84896 15.3385 1.86979 15.3594 1.89062C15.7135 2.03646 16 2.1875 16.2188 2.34375C16.4375 2.5 16.6146 2.68229 16.75 2.89062C16.8854 3.08854 16.9896 3.32292 17.0625 3.59375C17.1354 3.85417 17.2083 4.16146 17.2812 4.51562C17.3125 4.69271 17.3594 4.90104 17.4219 5.14062C17.4948 5.36979 17.5312 5.57292 17.5312 5.75C17.5312 5.79167 17.526 5.83333 17.5156 5.875C17.5052 5.90625 17.5 5.92708 17.5 5.9375C17.4583 6.40625 17.3854 6.86979 17.2812 7.32812C17.1771 7.78646 17.0729 8.23438 16.9688 8.67188C16.9375 8.70312 16.9062 8.75 16.875 8.8125C16.8438 8.86458 16.8177 8.90104 16.7969 8.92188C16.7865 8.94271 16.7448 8.99479 16.6719 9.07812C16.6094 9.16146 16.5365 9.25 16.4531 9.34375C16.3698 9.4375 16.2917 9.52604 16.2188 9.60938C16.1458 9.69271 16.1042 9.73958 16.0938 9.75C16.0938 9.77083 16.0729 9.8125 16.0312 9.875L15.9688 9.96875C15.8125 10.25 15.6146 10.4531 15.375 10.5781C15.1354 10.7031 14.8646 10.8229 14.5625 10.9375C14.5417 10.9688 14.4583 10.9948 14.3125 11.0156C14.1667 11.0365 14.0833 11.0573 14.0625 11.0781C14.0521 11.0781 14.0208 11.0938 13.9688 11.125C13.9271 11.1562 13.8802 11.1927 13.8281 11.2344C13.776 11.276 13.724 11.3125 13.6719 11.3438C13.6198 11.375 13.5885 11.3958 13.5781 11.4062C13.4635 11.4792 13.3229 11.5469 13.1562 11.6094C12.9896 11.6615 12.8177 11.7083 12.6406 11.75C12.4635 11.7917 12.2865 11.8229 12.1094 11.8438C11.9323 11.8646 11.7812 11.8802 11.6562 11.8906H8.45312C8.28646 11.9531 8.16146 12.0365 8.07812 12.1406C8.00521 12.2448 7.95312 12.3646 7.92188 12.5C7.89062 12.625 7.86979 12.7604 7.85938 12.9062C7.85938 13.0417 7.85938 13.1823 7.85938 13.3281C7.85938 13.3594 7.85417 13.4271 7.84375 13.5312C7.83333 13.6354 7.82292 13.75 7.8125 13.875C7.80208 13.9896 7.79167 14.099 7.78125 14.2031C7.77083 14.3073 7.76562 14.375 7.76562 14.4062V14.6719C7.76562 14.7865 7.76562 14.8802 7.76562 14.9531C7.77604 15.0156 7.80729 15.1042 7.85938 15.2188C7.85938 15.2604 7.85938 15.3281 7.85938 15.4219C7.85938 15.5052 7.85938 15.599 7.85938 15.7031C7.86979 15.7969 7.875 15.8854 7.875 15.9688C7.875 16.0521 7.875 16.1094 7.875 16.1406C7.875 16.4635 7.85417 16.7812 7.8125 17.0938C7.78125 17.4062 7.76562 17.7188 7.76562 18.0312V18.0781C7.76562 18.099 7.77083 18.151 7.78125 18.2344C7.79167 18.3073 7.79688 18.3542 7.79688 18.375C7.82812 18.9688 7.86458 19.5052 7.90625 19.9844C7.94792 20.4635 8.05729 20.9479 8.23438 21.4375C8.24479 21.4896 8.30208 21.5521 8.40625 21.625C8.51042 21.6875 8.625 21.75 8.75 21.8125C8.88542 21.875 9.01562 21.9271 9.14062 21.9688C9.26562 22.0104 9.35938 22.0312 9.42188 22.0312H10.0469C10.3177 22.0312 10.5833 22.0208 10.8438 22C11.1042 21.9688 11.3698 21.9531 11.6406 21.9531C11.7135 21.9531 11.7969 21.9792 11.8906 22.0312C11.9844 22.0833 12.0677 22.151 12.1406 22.2344C12.224 22.3177 12.2917 22.4062 12.3438 22.5C12.3958 22.5938 12.4219 22.6771 12.4219 22.75C12.4219 22.8542 12.4115 22.9427 12.3906 23.0156C12.3698 23.099 12.2917 23.1667 12.1562 23.2188H11.5625H10.9531C10.8906 23.2188 10.7812 23.2135 10.625 23.2031C10.4792 23.1927 10.3229 23.1771 10.1562 23.1562C9.98958 23.1458 9.83333 23.1302 9.6875 23.1094C9.55208 23.099 9.46354 23.0885 9.42188 23.0781C9.40104 23.0781 9.36458 23.0729 9.3125 23.0625C9.27083 23.0521 9.22396 23.0417 9.17188 23.0312C9.11979 23.0312 9.06771 23.026 9.01562 23.0156C8.97396 23.0052 8.94792 23 8.9375 23H8.82812C8.58854 23.0208 8.34896 23.0365 8.10938 23.0469C7.86979 23.0573 7.61979 23.0781 7.35938 23.1094C7.32812 23.1094 7.26562 23.1042 7.17188 23.0938C7.08854 23.0833 6.99479 23.0677 6.89062 23.0469C6.79688 23.0365 6.70312 23.026 6.60938 23.0156C6.52604 23.0052 6.46354 23 6.42188 23H5.6875ZM34.1469 23C34.0635 23 33.9438 23 33.7875 23C33.6417 23 33.4906 23 33.3344 23C33.1781 23.0104 33.0323 23.0156 32.8969 23.0156C32.7719 23.026 32.6938 23.0365 32.6625 23.0469C32.5896 23.0573 32.5167 23.0677 32.4438 23.0781C32.3813 23.0885 32.3188 23.099 32.2563 23.1094C32.1938 23.1198 32.1417 23.1302 32.1 23.1406C32.0792 23.1406 32.0427 23.1458 31.9906 23.1562C31.949 23.1667 31.9021 23.1771 31.85 23.1875C31.7979 23.2083 31.751 23.224 31.7094 23.2344C31.6677 23.2448 31.6417 23.25 31.6313 23.25H30.6938C30.5688 23.25 30.4542 23.2552 30.35 23.2656C30.2563 23.2865 30.1625 23.2969 30.0688 23.2969C29.8083 23.2969 29.5635 23.2552 29.3344 23.1719C29.1156 23.099 28.9177 22.9323 28.7406 22.6719C28.8135 22.4844 28.9125 22.3594 29.0375 22.2969C29.1729 22.2344 29.3292 22.1615 29.5063 22.0781C29.5167 22.0677 29.5531 22.0469 29.6156 22.0156C29.6885 21.974 29.7615 21.9323 29.8344 21.8906C29.9177 21.849 29.9906 21.8125 30.0531 21.7812C30.126 21.75 30.1677 21.7344 30.1781 21.7344H30.5219C30.5531 21.7344 30.6 21.7188 30.6625 21.6875C30.7354 21.6458 30.7823 21.625 30.8031 21.625C30.8448 21.6042 30.9229 21.5833 31.0375 21.5625C31.1625 21.5312 31.2927 21.5 31.4281 21.4688C31.574 21.4375 31.7094 21.4115 31.8344 21.3906C31.9594 21.3698 32.0479 21.3542 32.1 21.3438C32.3604 21.1562 32.5271 20.9531 32.6 20.7344C32.6729 20.5156 32.751 20.2448 32.8344 19.9219V17.0781C32.8344 17.0469 32.8396 17.0052 32.85 16.9531C32.8604 16.8906 32.8708 16.8281 32.8813 16.7656C32.9021 16.6927 32.9177 16.6302 32.9281 16.5781C32.9385 16.5156 32.949 16.4688 32.9594 16.4375V12.2188C32.9802 11.5521 32.9958 11.0104 33.0063 10.5938C33.0271 10.1667 33.0427 9.82812 33.0531 9.57812C33.074 9.31771 33.0844 9.11979 33.0844 8.98438C33.0948 8.84896 33.1 8.73438 33.1 8.64062C33.1 8.43229 33.0948 8.22396 33.0844 8.01562C33.074 7.79688 33.0688 7.66667 33.0688 7.625C33.1 7.125 33.1469 6.66146 33.2094 6.23438C33.2823 5.79688 33.3188 5.32812 33.3188 4.82812C33.3188 4.60938 33.3135 4.41146 33.3031 4.23438C33.3031 4.04688 33.2927 3.875 33.2719 3.71875C33.251 3.55208 33.2146 3.38542 33.1625 3.21875C33.1208 3.05208 33.0531 2.86979 32.9594 2.67188C32.9281 2.63021 32.8656 2.58854 32.7719 2.54688C32.6885 2.49479 32.5948 2.44792 32.4906 2.40625C32.3969 2.35417 32.3031 2.3125 32.2094 2.28125C32.126 2.23958 32.0635 2.21875 32.0219 2.21875C31.9906 2.20833 31.9281 2.19792 31.8344 2.1875C31.7406 2.16667 31.6365 2.15104 31.5219 2.14062C31.4177 2.13021 31.3135 2.11979 31.2094 2.10938C31.1156 2.09896 31.0583 2.08854 31.0375 2.07812C31.0271 2.07812 30.9698 2.06771 30.8656 2.04688C30.7719 2.01562 30.7146 1.98958 30.6938 1.96875H30.1313C29.975 1.96875 29.8708 1.96354 29.8188 1.95312C29.7667 1.94271 29.6781 1.91146 29.5531 1.85938C29.4073 1.80729 29.2771 1.73438 29.1625 1.64062C29.0479 1.53646 28.9906 1.4375 28.9906 1.34375V1.15625C29.1052 0.9375 29.2458 0.802083 29.4125 0.75C29.5792 0.697917 29.751 0.671875 29.9281 0.671875C30.0115 0.671875 30.0844 0.677083 30.1469 0.6875C30.2094 0.697917 30.2719 0.703125 30.3344 0.703125C30.4073 0.703125 30.4906 0.682292 30.5844 0.640625C30.6781 0.598958 30.751 0.5625 30.8031 0.53125H30.9594H31.1313C31.1833 0.552083 31.2979 0.572917 31.475 0.59375C31.6521 0.614583 31.8396 0.640625 32.0375 0.671875C32.2458 0.692708 32.4385 0.713542 32.6156 0.734375C32.7927 0.744792 32.9073 0.75 32.9594 0.75C33.074 0.770833 33.2823 0.796875 33.5844 0.828125C33.8969 0.848958 34.2198 0.875 34.5531 0.90625C34.8969 0.927083 35.2198 0.947917 35.5219 0.96875C35.824 0.989583 36.0323 1 36.1469 1C36.6469 0.875 37.1313 0.802083 37.6 0.78125C38.0792 0.760417 38.5531 0.75 39.0219 0.75H40.3656C40.4802 0.833333 40.5479 0.942708 40.5688 1.07812C40.6 1.20312 40.6156 1.31771 40.6156 1.42188C40.6156 1.58854 40.574 1.71354 40.4906 1.79688C40.4177 1.88021 40.3188 1.94271 40.1938 1.98438C40.0792 2.01562 39.9542 2.03646 39.8188 2.04688C39.6833 2.05729 39.5531 2.06771 39.4281 2.07812C39.3552 2.07812 39.225 2.09375 39.0375 2.125C38.8604 2.15625 38.7354 2.1875 38.6625 2.21875C38.6521 2.21875 38.626 2.22917 38.5844 2.25C38.5427 2.27083 38.4958 2.29688 38.4438 2.32812C38.3917 2.34896 38.3396 2.375 38.2875 2.40625C38.2458 2.42708 38.2198 2.44271 38.2094 2.45312C38.199 2.45312 38.1677 2.45833 38.1156 2.46875C38.074 2.47917 38.0271 2.48958 37.975 2.5C37.9229 2.51042 37.8708 2.52604 37.8188 2.54688C37.7667 2.56771 37.7354 2.58333 37.725 2.59375C37.7042 2.59375 37.6729 2.59896 37.6313 2.60938C37.6 2.61979 37.5635 2.63021 37.5219 2.64062L37.3656 2.67188C37.3344 2.70312 37.2927 2.74479 37.2406 2.79688C37.1885 2.83854 37.1365 2.88542 37.0844 2.9375C37.0427 2.98958 37.001 3.03646 36.9594 3.07812C36.9177 3.11979 36.8917 3.14583 36.8813 3.15625C36.8813 3.17708 36.876 3.21875 36.8656 3.28125C36.8552 3.34375 36.8396 3.41667 36.8188 3.5C36.8083 3.57292 36.7979 3.64583 36.7875 3.71875C36.7771 3.78125 36.7719 3.82812 36.7719 3.85938C36.7615 3.98438 36.751 4.20312 36.7406 4.51562C36.7406 4.82812 36.7354 5.15625 36.725 5.5C36.725 5.84375 36.725 6.16667 36.725 6.46875C36.725 6.77083 36.725 6.98438 36.725 7.10938L36.6938 7.48438V9.85938C36.6729 10.6302 36.6521 11.2396 36.6313 11.6875C36.6208 12.125 36.6052 12.4635 36.5844 12.7031C36.574 12.9427 36.5635 13.1146 36.5531 13.2188C36.5427 13.3125 36.5375 13.3906 36.5375 13.4531C36.5063 13.7135 36.4854 13.974 36.475 14.2344C36.4646 14.4948 36.449 14.7604 36.4281 15.0312C36.4177 15.0417 36.4073 15.0781 36.3969 15.1406C36.3865 15.1927 36.376 15.2552 36.3656 15.3281C36.3552 15.3906 36.3448 15.4531 36.3344 15.5156C36.324 15.5677 36.3188 15.6042 36.3188 15.625C36.3188 15.6771 36.324 15.7969 36.3344 15.9844C36.3448 16.1615 36.3552 16.3594 36.3656 16.5781C36.3865 16.7865 36.4021 16.9844 36.4125 17.1719C36.4229 17.3594 36.4281 17.474 36.4281 17.5156C36.4281 17.5677 36.4229 17.6771 36.4125 17.8438C36.4021 18.0104 36.3865 18.1875 36.3656 18.375C36.3552 18.5625 36.3448 18.7396 36.3344 18.9062C36.324 19.0729 36.3188 19.1771 36.3188 19.2188V19.9219C36.3188 20.0781 36.3188 20.2448 36.3188 20.4219C36.3292 20.599 36.3552 20.7708 36.3969 20.9375C36.449 21.0938 36.5219 21.2344 36.6156 21.3594C36.7094 21.4844 36.8448 21.5729 37.0219 21.625C37.0531 21.6354 37.1156 21.6458 37.2094 21.6562C37.3135 21.6667 37.4229 21.6771 37.5375 21.6875C37.6625 21.6875 37.7771 21.6927 37.8813 21.7031C37.9958 21.7135 38.0688 21.724 38.1 21.7344C38.1521 21.7344 38.2458 21.7552 38.3813 21.7969C38.5167 21.8385 38.6573 21.8854 38.8031 21.9375C38.9594 21.9792 39.1052 22.026 39.2406 22.0781C39.376 22.1198 39.475 22.1562 39.5375 22.1875C39.6 22.2188 39.6365 22.2656 39.6469 22.3281C39.6573 22.3802 39.6625 22.4323 39.6625 22.4844C39.6625 22.6302 39.626 22.7604 39.5531 22.875C39.4802 22.9792 39.3917 23.0677 39.2875 23.1406C39.1833 23.224 39.0635 23.2969 38.9281 23.3594C38.8031 23.4219 38.6885 23.474 38.5844 23.5156H38.4438C38.3708 23.5052 38.1781 23.474 37.8656 23.4219C37.5635 23.3802 37.2354 23.3281 36.8813 23.2656C36.5271 23.2135 36.199 23.1615 35.8969 23.1094C35.5948 23.0677 35.4073 23.0469 35.3344 23.0469C35.3344 23.0365 35.2823 23.026 35.1781 23.0156C35.0844 23.0156 34.9698 23.0104 34.8344 23C34.7094 23 34.5792 23 34.4438 23C34.3188 23 34.2198 23 34.1469 23ZM52.4031 22.4844C52.4031 22.276 52.5385 22.1146 52.8094 22C52.9552 21.9167 53.1167 21.8646 53.2938 21.8438C53.4708 21.8229 53.6427 21.8125 53.8094 21.8125C53.8615 21.8125 53.9135 21.8073 53.9656 21.7969C54.0177 21.7865 54.0646 21.7812 54.1063 21.7812C54.1583 21.7812 54.2677 21.7708 54.4344 21.75C54.601 21.7292 54.7729 21.6979 54.95 21.6562C55.0438 21.6354 55.1323 21.6146 55.2156 21.5938C55.3094 21.5625 55.3823 21.5469 55.4344 21.5469C55.5177 21.526 55.6219 21.4792 55.7469 21.4062C55.8823 21.3229 56.0073 21.2344 56.1219 21.1406C56.2469 21.0365 56.351 20.9323 56.4344 20.8281C56.5281 20.7135 56.575 20.6094 56.575 20.5156L56.6219 18.7031C56.6219 18.526 56.601 18.3229 56.5594 18.0938C56.5281 17.8646 56.5125 17.6615 56.5125 17.4844C56.5125 17.224 56.5281 16.9427 56.5594 16.6406C56.601 16.3281 56.6219 16.0417 56.6219 15.7812C56.5385 15.5312 56.5385 15.2344 56.6219 14.8906V12.9219C56.6219 12.849 56.6167 12.7083 56.6063 12.5C56.5958 12.2917 56.5906 12.0729 56.5906 11.8438C56.5802 11.625 56.575 11.4219 56.575 11.2344C56.575 11.0365 56.575 10.8958 56.575 10.8125L56.6219 10.4531C56.6427 10.3698 56.6583 10.2812 56.6688 10.1875C56.6896 10.0938 56.7 10.0573 56.7 10.0781V9.89062V9.03125V8.45312V7.96875C56.6896 7.94792 56.674 7.90625 56.6531 7.84375C56.6323 7.78125 56.6115 7.72396 56.5906 7.67188C56.5906 7.65104 56.5854 7.64062 56.575 7.64062C56.575 7.63021 56.575 7.61458 56.575 7.59375C56.575 7.5625 56.5646 7.48438 56.5438 7.35938C56.5229 7.23438 56.5125 7.10417 56.5125 6.96875C56.5021 6.82292 56.4917 6.69792 56.4813 6.59375C56.4708 6.48958 56.4656 6.41667 56.4656 6.375C56.4448 6.35417 56.424 6.3125 56.4031 6.25C56.3823 6.1875 56.3563 6.11458 56.325 6.03125C56.3042 5.97917 56.2729 5.91146 56.2313 5.82812C56.2 5.74479 56.1948 5.71354 56.2156 5.73438C56.1948 5.66146 56.174 5.59896 56.1531 5.54688C56.1427 5.48438 56.1271 5.42708 56.1063 5.375C56.0646 5.15625 56.0125 4.97396 55.95 4.82812C55.8875 4.68229 55.7521 4.54688 55.5438 4.42188C55.5229 4.42188 55.476 4.40625 55.4031 4.375C55.3302 4.34375 55.2469 4.30729 55.1531 4.26562C55.0698 4.22396 54.9917 4.1875 54.9188 4.15625C54.8458 4.11458 54.7938 4.08854 54.7625 4.07812C54.7625 4.05729 54.7208 4 54.6375 3.90625C54.5646 3.80208 54.5073 3.70833 54.4656 3.625C54.4448 3.60417 54.4292 3.57292 54.4188 3.53125C54.4083 3.48958 54.3979 3.45312 54.3875 3.42188C54.3667 3.36979 54.351 3.33333 54.3406 3.3125C54.3302 3.28125 54.325 3.25521 54.325 3.23438C54.3146 3.22396 54.299 3.21354 54.2781 3.20312C54.2573 3.19271 54.226 3.16667 54.1844 3.125C53.9552 2.96875 53.7469 2.79688 53.5594 2.60938C53.3823 2.41146 53.1948 2.19792 52.9969 1.96875C52.9969 1.94792 52.9813 1.92188 52.95 1.89062C52.9292 1.89062 52.9188 1.88542 52.9188 1.875V1.85938C52.9396 1.85938 52.9292 1.84896 52.8875 1.82812C52.8458 1.80729 52.8042 1.78125 52.7625 1.75C52.7208 1.70833 52.674 1.67708 52.6219 1.65625C52.5698 1.63542 52.5333 1.61458 52.5125 1.59375L52.3875 1.40625C52.3354 1.35417 52.2833 1.29167 52.2313 1.21875C52.1792 1.14583 52.1323 1.0625 52.0906 0.96875C52.2365 0.854167 52.3979 0.765625 52.575 0.703125C52.7625 0.630208 52.9604 0.59375 53.1688 0.59375H53.2938C53.4396 0.614583 53.7 0.645833 54.075 0.6875C54.45 0.71875 54.8406 0.75 55.2469 0.78125C55.476 0.802083 55.7 0.822917 55.9188 0.84375C56.1479 0.854167 56.3563 0.869792 56.5438 0.890625C56.7417 0.901042 56.9135 0.916667 57.0594 0.9375C57.2052 0.947917 57.3198 0.958333 57.4031 0.96875C57.4344 0.989583 57.4865 1.02604 57.5594 1.07812C57.6323 1.13021 57.7052 1.1875 57.7781 1.25C57.8615 1.30208 57.9344 1.35417 57.9969 1.40625C58.0594 1.45833 58.1063 1.5 58.1375 1.53125C58.1792 1.67708 58.2052 1.76042 58.2156 1.78125C58.226 1.80208 58.2469 1.8125 58.2781 1.8125C58.299 1.83333 58.3563 1.88542 58.45 1.96875C58.5438 2.05208 58.601 2.11458 58.6219 2.15625C58.6427 2.15625 58.6792 2.17188 58.7313 2.20312C58.7833 2.23438 58.8302 2.27604 58.8719 2.32812C58.8823 2.32812 58.8979 2.33854 58.9188 2.35938C58.9396 2.36979 58.9708 2.39583 59.0125 2.4375C59.0646 2.47917 59.1323 2.54688 59.2156 2.64062C59.3094 2.72396 59.4344 2.84375 59.5906 3C59.6844 3.07292 59.7417 3.13542 59.7625 3.1875C59.825 3.30208 59.8615 3.36979 59.8719 3.39062C59.8823 3.41146 59.8875 3.43229 59.8875 3.45312C59.9083 3.48438 59.9396 3.54688 59.9813 3.64062C60.0229 3.73438 60.0646 3.83854 60.1063 3.95312C60.1479 4.05729 60.1844 4.15625 60.2156 4.25C60.2469 4.34375 60.2677 4.40104 60.2781 4.42188C60.3302 4.56771 60.4083 4.67708 60.5125 4.75C60.6271 4.82292 60.7469 4.89583 60.8719 4.96875C60.9865 5.02083 61.101 5.09375 61.2156 5.1875C61.3302 5.27083 61.4135 5.35938 61.4656 5.45312C61.4865 5.49479 61.5073 5.53125 61.5281 5.5625C61.549 5.59375 61.5802 5.65625 61.6219 5.75C61.6844 5.83333 61.7573 5.92708 61.8406 6.03125C61.924 6.125 62.0646 6.27604 62.2625 6.48438C62.4604 6.68229 62.7365 6.95312 63.0906 7.29688C63.4448 7.63021 63.9292 8.07812 64.5438 8.64062C64.5854 8.73438 64.6375 8.83333 64.7 8.9375C64.7625 9.03125 64.8354 9.125 64.9188 9.21875C65.1792 9.45833 65.3615 9.74479 65.4656 10.0781C65.7469 10.349 66.0229 10.6302 66.2938 10.9219C66.5646 11.2135 66.8354 11.5104 67.1063 11.8125C67.5438 12.2812 67.9813 12.7396 68.4188 13.1875C68.8563 13.6354 69.3406 14.0573 69.8719 14.4531C69.8927 14.4844 69.924 14.526 69.9656 14.5781C70.0073 14.6302 70.049 14.6979 70.0906 14.7812C70.101 14.8229 70.1271 14.8646 70.1688 14.9062C70.2208 14.9375 70.2729 14.9844 70.325 15.0469C70.5125 15.1927 70.6792 15.3542 70.825 15.5312C70.9708 15.7083 71.1323 15.8906 71.3094 16.0781C71.4448 16.224 71.6063 16.3698 71.7938 16.5156C71.9917 16.6615 72.1688 16.8021 72.325 16.9375H72.4969H72.575C72.6271 16.9375 72.6844 16.9323 72.7469 16.9219C72.8198 16.9115 72.8771 16.8854 72.9188 16.8438H73.0125C73.0229 16.8438 73.0385 16.8438 73.0594 16.8438C73.0802 16.8438 73.0958 16.8333 73.1063 16.8125C73.1896 16.7708 73.2781 16.7292 73.3719 16.6875C73.4656 16.6458 73.5229 16.5781 73.5438 16.4844C73.5646 16.4323 73.575 16.3698 73.575 16.2969C73.575 16.2448 73.5646 16.1979 73.5438 16.1562C73.5229 16.1042 73.5073 16.0521 73.4969 16C73.476 15.9271 73.4552 15.8542 73.4344 15.7812C73.4135 15.7083 73.3979 15.6302 73.3875 15.5469C73.3667 15.474 73.3563 15.4062 73.3563 15.3438C73.3563 15.2708 73.3563 15.2031 73.3563 15.1406C73.3354 14.474 73.299 13.8073 73.2469 13.1406C73.2052 12.4635 73.1583 11.7865 73.1063 11.1094C73.1063 10.9219 73.0958 10.7396 73.075 10.5625C73.0646 10.375 73.049 10.1771 73.0281 9.96875C73.0073 9.94792 72.9865 9.89583 72.9656 9.8125C72.9552 9.72917 72.9396 9.63021 72.9188 9.51562C72.9188 9.46354 72.9135 9.41667 72.9031 9.375C72.9031 9.33333 72.9031 9.29688 72.9031 9.26562C72.8302 8.90104 72.7833 8.53646 72.7625 8.17188C72.7417 7.80729 72.726 7.43229 72.7156 7.04688L72.6219 5.82812C72.6219 5.78646 72.6115 5.68229 72.5906 5.51562C72.5698 5.34896 72.5438 5.20312 72.5125 5.07812C72.5125 4.99479 72.5177 4.89062 72.5281 4.76562C72.5385 4.64062 72.5438 4.52083 72.5438 4.40625C72.5438 4.36458 72.5438 4.32292 72.5438 4.28125C72.5438 4.23958 72.5333 4.20833 72.5125 4.1875C72.5125 4.13542 72.5021 4.05208 72.4813 3.9375C72.4708 3.82292 72.4656 3.72396 72.4656 3.64062C72.424 3.60938 72.4031 3.55729 72.4031 3.48438L72.1375 3.21875C72.0854 3.16667 72.0281 3.10938 71.9656 3.04688C71.9135 2.98438 71.8615 2.93229 71.8094 2.89062C71.7781 2.89062 71.7417 2.88021 71.7 2.85938C71.6583 2.83854 71.6115 2.82812 71.5594 2.82812C71.5177 2.81771 71.4865 2.8125 71.4656 2.8125C71.4448 2.79167 71.4135 2.75521 71.3719 2.70312C71.3302 2.65104 71.2833 2.59896 71.2313 2.54688C71.1792 2.49479 71.1323 2.44792 71.0906 2.40625C71.049 2.35417 71.0229 2.32812 71.0125 2.32812C70.8458 2.22396 70.6635 2.16146 70.4656 2.14062C70.2781 2.11979 70.0802 2.10938 69.8719 2.10938H69.5438C69.4083 2.10938 69.2729 2.10938 69.1375 2.10938C69.0021 2.10938 68.8771 2.09896 68.7625 2.07812L68.3875 1.92188C68.2833 1.88021 68.2208 1.85938 68.2 1.85938C68.1479 1.82812 68.0802 1.78646 67.9969 1.73438C67.9135 1.68229 67.8302 1.625 67.7469 1.5625C67.674 1.48958 67.6063 1.41667 67.5438 1.34375C67.4917 1.27083 67.4656 1.20833 67.4656 1.15625C67.4656 1.125 67.476 1.07812 67.4969 1.01562C67.5281 0.953125 67.5594 0.890625 67.5906 0.828125C67.6219 0.765625 67.6531 0.713542 67.6844 0.671875C67.726 0.619792 67.7625 0.59375 67.7938 0.59375H69.9813C70.0958 0.708333 70.226 0.776042 70.3719 0.796875C70.5281 0.817708 70.6948 0.838542 70.8719 0.859375H71.0125C71.0542 0.859375 71.1635 0.864583 71.3406 0.875C71.5177 0.885417 71.7052 0.895833 71.9031 0.90625C72.1115 0.916667 72.299 0.927083 72.4656 0.9375C72.6427 0.947917 72.7521 0.958333 72.7938 0.96875H76.9188C77.0958 1.01042 77.226 1.05729 77.3094 1.10938C77.3927 1.16146 77.4344 1.27604 77.4344 1.45312C77.4344 1.68229 77.3875 1.86458 77.2938 2C77.2104 2.125 77.0906 2.21875 76.9344 2.28125C76.7885 2.34375 76.6167 2.38542 76.4188 2.40625C76.2208 2.42708 76.0125 2.44271 75.7938 2.45312C75.6063 2.47396 75.424 2.49479 75.2469 2.51562C75.0698 2.52604 74.9031 2.55208 74.7469 2.59375C74.5906 2.63542 74.4448 2.69792 74.3094 2.78125C74.1844 2.86458 74.0854 2.97917 74.0125 3.125C74.0021 3.19792 73.9917 3.30729 73.9813 3.45312C73.9708 3.58854 73.9604 3.74479 73.95 3.92188C73.9396 4.09896 73.9292 4.28646 73.9188 4.48438C73.9083 4.68229 73.9031 4.86979 73.9031 5.04688V5.9375V6.29688C73.9031 6.41146 73.9083 6.52604 73.9188 6.64062C73.9292 6.75521 73.9604 6.875 74.0125 7C74.0333 7.08333 74.0542 7.17188 74.075 7.26562C74.0958 7.35938 74.1063 7.46875 74.1063 7.59375V9.75L74.0594 9.92188C74.0594 9.98438 74.049 10.0573 74.0281 10.1406C74.0177 10.224 74.0125 10.2917 74.0125 10.3438C74.0125 10.4271 74.0125 10.5781 74.0125 10.7969C74.0229 11.0156 74.0385 11.2448 74.0594 11.4844C74.0594 11.724 74.0646 11.9479 74.075 12.1562C74.0854 12.3542 74.0958 12.5 74.1063 12.5938C74.2104 12.7708 74.2833 12.9948 74.325 13.2656C74.3667 13.526 74.3875 13.7604 74.3875 13.9688V14.0781C74.3875 14.099 74.3875 14.1198 74.3875 14.1406C74.3875 14.1615 74.3771 14.2292 74.3563 14.3438C74.3563 14.375 74.3458 14.4271 74.325 14.5C74.3146 14.5625 74.2885 14.6771 74.2469 14.8438C74.2469 14.8646 74.2417 14.9479 74.2313 15.0938C74.2208 15.2292 74.2104 15.3802 74.2 15.5469C74.1792 15.6927 74.1583 15.8333 74.1375 15.9688C74.1167 16.1042 74.1063 16.1979 74.1063 16.25C74.0958 16.3125 74.0646 16.4115 74.0125 16.5469C73.9604 16.6719 73.9031 16.8073 73.8406 16.9531C73.7781 17.0885 73.7156 17.2135 73.6531 17.3281C73.5906 17.4427 73.5438 17.5208 73.5125 17.5625V17.7344C73.5125 17.8385 73.5177 17.9271 73.5281 18C73.5385 18.0625 73.5802 18.151 73.6531 18.2656C73.6844 18.4115 73.7052 18.5625 73.7156 18.7188C73.726 18.8646 73.7313 19.0104 73.7313 19.1562C73.7313 19.3021 73.726 19.4583 73.7156 19.625C73.7052 19.7812 73.6844 19.9427 73.6531 20.1094C73.7781 20.2969 73.851 20.5208 73.8719 20.7812C73.8927 21.0312 73.9031 21.276 73.9031 21.5156C73.9031 21.6406 73.8927 21.7865 73.8719 21.9531C73.8615 22.1094 73.8302 22.2604 73.7781 22.4062C73.726 22.5521 73.6479 22.6771 73.5438 22.7812C73.45 22.875 73.3146 22.9219 73.1375 22.9219C72.9708 22.9219 72.8198 22.8698 72.6844 22.7656C72.549 22.6615 72.424 22.5521 72.3094 22.4375L72.0594 22.1875C72.0385 22.1562 71.9969 22.1042 71.9344 22.0312C71.8823 21.9583 71.825 21.8854 71.7625 21.8125C71.7 21.7292 71.6375 21.6562 71.575 21.5938C71.5229 21.5208 71.4865 21.474 71.4656 21.4531C71.4344 21.401 71.3354 21.2656 71.1688 21.0469C71.0125 20.8281 70.8406 20.5938 70.6531 20.3438C70.476 20.0938 70.3042 19.8594 70.1375 19.6406C69.9708 19.4219 69.8615 19.2812 69.8094 19.2188C69.7677 19.1875 69.674 19.1042 69.5281 18.9688C69.3823 18.8229 69.226 18.651 69.0594 18.4531C68.8823 18.2969 68.7104 18.1406 68.5438 17.9844C68.3875 17.8281 68.299 17.7135 68.2781 17.6406C68.2781 17.6302 68.2625 17.6146 68.2313 17.5938C68.2104 17.5625 68.1896 17.526 68.1688 17.4844C68.1375 17.4635 68.1115 17.4271 68.0906 17.375C68.0698 17.3229 68.0594 17.3073 68.0594 17.3281C67.8927 17.1094 67.6792 16.8802 67.4188 16.6406C67.1583 16.3906 66.9188 16.1875 66.7 16.0312C66.6792 16.0104 66.6375 15.9896 66.575 15.9688C66.5229 15.9375 66.476 15.901 66.4344 15.8594C66.3823 15.849 66.3406 15.8385 66.3094 15.8281C66.2885 15.8073 66.2313 15.7552 66.1375 15.6719C66.1167 15.6719 66.0906 15.6562 66.0594 15.625C66.0385 15.5938 66.0281 15.5677 66.0281 15.5469C66.0073 15.5469 65.9813 15.5104 65.95 15.4375C65.9188 15.3542 65.8927 15.2708 65.8719 15.1875L65.8094 15.0781C65.7885 15.0573 65.7313 15.0052 65.6375 14.9219C65.5542 14.8281 65.4708 14.7188 65.3875 14.5938C65.2938 14.5 65.2 14.401 65.1063 14.2969C65.0229 14.1927 64.9708 14.1302 64.95 14.1094C64.8354 13.9948 64.7417 13.8698 64.6688 13.7344C64.5958 13.599 64.5021 13.4688 64.3875 13.3438C64.3146 13.2396 64.2365 13.1354 64.1531 13.0312C64.0802 12.9271 63.9969 12.8281 63.9031 12.7344L63.4656 12.2656C63.0281 11.901 62.601 11.5417 62.1844 11.1875C61.7677 10.8333 61.3458 10.474 60.9188 10.1094C60.9083 10.099 60.8771 10.0677 60.825 10.0156C60.7729 9.95312 60.7156 9.89062 60.6531 9.82812C60.5906 9.76562 60.5281 9.70833 60.4656 9.65625C60.4135 9.59375 60.3771 9.54688 60.3563 9.51562C60.0229 9.16146 59.7 8.82292 59.3875 8.5C59.075 8.17708 58.7313 7.86458 58.3563 7.5625C58.3458 7.54167 58.3042 7.52083 58.2313 7.5C58.2 7.48958 58.1688 7.48438 58.1375 7.48438C58.0958 7.48438 58.049 7.48438 57.9969 7.48438C57.9448 7.48438 57.9188 7.49479 57.9188 7.51562C57.9188 7.52604 57.9083 7.53125 57.8875 7.53125C57.8667 7.53125 57.8458 7.55729 57.825 7.60938C57.8146 7.66146 57.8094 7.70312 57.8094 7.73438V9.15625C57.8198 9.1875 57.8302 9.28646 57.8406 9.45312C57.851 9.60938 57.8615 9.78125 57.8719 9.96875C57.8823 10.1562 57.8927 10.3333 57.9031 10.5C57.9135 10.6667 57.9188 10.7708 57.9188 10.8125V13.4375L57.9813 13.8438C57.9813 13.8958 57.9813 13.9427 57.9813 13.9844C57.9813 14.026 57.9865 14.0677 57.9969 14.1094C58.0073 14.151 58.0177 14.1927 58.0281 14.2344V15.0469L58.1375 15.2344V16.25C58.1375 16.2708 58.1323 16.3385 58.1219 16.4531C58.1219 16.5573 58.1427 16.6667 58.1844 16.7812C58.2156 16.8958 58.2417 17.0156 58.2625 17.1406C58.2833 17.2656 58.2938 17.3177 58.2938 17.2969C58.325 17.4844 58.3406 17.6719 58.3406 17.8594C58.351 18.0365 58.3563 18.2292 58.3563 18.4375C58.3563 18.7188 58.3771 19.0052 58.4188 19.2969C58.4708 19.5885 58.5385 19.8698 58.6219 20.1406C58.6531 20.1823 58.7156 20.2552 58.8094 20.3594C58.9031 20.4531 58.9969 20.5573 59.0906 20.6719C59.1948 20.776 59.2938 20.875 59.3875 20.9688C59.4813 21.0625 59.5438 21.125 59.575 21.1562C59.575 21.1667 59.6167 21.1927 59.7 21.2344C59.7833 21.276 59.8771 21.3281 59.9813 21.3906C60.0958 21.4427 60.2104 21.4948 60.325 21.5469C60.45 21.599 60.549 21.6406 60.6219 21.6719C60.6635 21.6927 60.7208 21.7188 60.7938 21.75C60.8771 21.7708 60.9292 21.7812 60.95 21.7812C61.0229 21.7917 61.1427 21.8073 61.3094 21.8281C61.4865 21.849 61.6688 21.8698 61.8563 21.8906C62.0438 21.9115 62.2208 21.9323 62.3875 21.9531C62.5542 21.974 62.6688 21.9896 62.7313 22C62.7417 22 62.7469 22.0052 62.7469 22.0156C62.7573 22.0156 62.7677 22.0156 62.7781 22.0156C62.7885 22.026 62.799 22.0312 62.8094 22.0312C62.924 22.1146 63.0281 22.1979 63.1219 22.2812C63.226 22.3646 63.2781 22.4792 63.2781 22.625C63.2781 22.7604 63.2365 22.8646 63.1531 22.9375C63.0802 23 62.9865 23.0573 62.8719 23.1094C62.799 23.1094 62.7 23.1146 62.575 23.125C62.45 23.1354 62.3146 23.1406 62.1688 23.1406H61.4969C61.1635 23.1406 60.8406 23.1302 60.5281 23.1094C60.2156 23.0885 59.9031 23.0781 59.5906 23.0781C59.2677 23.0573 58.9448 23.0365 58.6219 23.0156C58.3094 23.0052 57.976 23 57.6219 23H56.1063C55.9917 23.0208 55.8198 23.0312 55.5906 23.0312C55.3719 23.0417 55.1323 23.0573 54.8719 23.0781C54.601 23.0781 54.3458 23.0833 54.1063 23.0938C53.8771 23.1042 53.7156 23.1094 53.6219 23.1094C53.6219 23.1302 53.5646 23.1562 53.45 23.1875C53.3458 23.2292 53.2677 23.25 53.2156 23.25C53.1531 23.25 53.075 23.224 52.9813 23.1719C52.8875 23.1198 52.7938 23.0573 52.7 22.9844C52.6167 22.901 52.5438 22.8177 52.4813 22.7344C52.4292 22.6406 52.4031 22.5573 52.4031 22.4844ZM95.4875 22.9531H95.3781C95.326 22.9635 95.2219 22.9792 95.0656 23C94.9094 23.0312 94.8052 23.0573 94.7531 23.0781H90.3469C90.2948 23.0781 90.2323 23.0573 90.1594 23.0156C90.0969 22.974 90.0344 22.9219 89.9719 22.8594C89.9094 22.7969 89.8573 22.7344 89.8156 22.6719C89.774 22.6094 89.7531 22.5573 89.7531 22.5156C89.7531 22.4844 89.7792 22.4531 89.8313 22.4219C89.8938 22.3906 89.9615 22.3646 90.0344 22.3438C90.1073 22.3125 90.175 22.2917 90.2375 22.2812C90.3 22.2604 90.3365 22.25 90.3469 22.25C90.649 22.1042 90.9302 22.0052 91.1906 21.9531C91.4615 21.8906 91.7479 21.8594 92.05 21.8594H92.3781C92.4198 21.8385 92.4667 21.7917 92.5188 21.7188C92.5708 21.6354 92.6073 21.5677 92.6281 21.5156C92.6281 21.4844 92.6333 21.4219 92.6438 21.3281C92.6646 21.2344 92.6802 21.1406 92.6906 21.0469C92.701 20.9427 92.7115 20.8438 92.7219 20.75C92.7323 20.6562 92.7375 20.5938 92.7375 20.5625V19.2188C92.7375 19.2083 92.7427 19.1719 92.7531 19.1094C92.7635 19.0365 92.774 18.9635 92.7844 18.8906C92.8052 18.8073 92.8208 18.7344 92.8313 18.6719C92.8521 18.599 92.8625 18.5573 92.8625 18.5469V18.4531V18.4375C92.7479 17.75 92.6802 17.0833 92.6594 16.4375C92.649 15.7812 92.6385 15.1198 92.6281 14.4531C92.6177 14.276 92.6073 14.0156 92.5969 13.6719C92.5865 13.3281 92.576 12.9792 92.5656 12.625C92.5552 12.2708 92.5396 11.9479 92.5188 11.6562C92.5083 11.3646 92.4979 11.1823 92.4875 11.1094C92.4875 11.0885 92.4823 11.0312 92.4719 10.9375C92.4615 10.8438 92.4458 10.7448 92.425 10.6406C92.4146 10.526 92.4042 10.4219 92.3938 10.3281C92.3833 10.2344 92.3781 10.1771 92.3781 10.1562C92.3781 10.0938 92.3885 9.93229 92.4094 9.67188C92.4302 9.41146 92.4563 9.13542 92.4875 8.84375C92.5188 8.54167 92.5448 8.26042 92.5656 8C92.5969 7.73958 92.6177 7.57812 92.6281 7.51562V6.73438V5.96875C92.6281 5.94792 92.6021 5.88542 92.55 5.78125C92.5083 5.67708 92.4875 5.61458 92.4875 5.59375V4.64062C92.4875 4.60938 92.4823 4.54688 92.4719 4.45312C92.4615 4.35938 92.4458 4.26042 92.425 4.15625C92.4146 4.05208 92.4042 3.95833 92.3938 3.875C92.3833 3.78125 92.3781 3.72396 92.3781 3.70312C92.3677 3.55729 92.3469 3.39062 92.3156 3.20312C92.2844 3.01562 92.2323 2.83854 92.1594 2.67188C92.0865 2.49479 91.9927 2.34896 91.8781 2.23438C91.7635 2.10938 91.6177 2.04167 91.4406 2.03125H90.3469C90.2531 2.01042 90.1542 1.96875 90.05 1.90625C89.9458 1.83333 89.8417 1.75521 89.7375 1.67188C89.6333 1.57812 89.5396 1.48958 89.4563 1.40625C89.3729 1.32292 89.3104 1.25 89.2688 1.1875V1.10938V1.04688C89.2896 1.04688 89.3052 1.03646 89.3156 1.01562C89.3365 0.984375 89.3573 0.958333 89.3781 0.9375H92.0813H94.7531C94.7844 0.9375 94.8573 0.942708 94.9719 0.953125C95.0969 0.963542 95.2271 0.979167 95.3625 1C95.4979 1.01042 95.6229 1.02083 95.7375 1.03125C95.8625 1.04167 95.9406 1.04688 95.9719 1.04688H96.2219C96.3677 1.04688 96.5083 1.03125 96.6438 1C96.7896 0.958333 96.9354 0.9375 97.0813 0.9375H97.1594C97.201 0.947917 97.2583 0.958333 97.3313 0.96875C97.4146 0.979167 97.4927 0.989583 97.5656 1C97.649 1.01042 97.7167 1.02083 97.7688 1.03125C97.8313 1.04167 97.8625 1.04688 97.8625 1.04688C97.8938 1.04688 97.925 1.06771 97.9563 1.10938C97.9875 1.14062 98.0031 1.16667 98.0031 1.1875C97.9927 1.21875 97.9771 1.25 97.9563 1.28125C97.9354 1.30208 97.9198 1.32812 97.9094 1.35938C97.899 1.39062 97.8833 1.41146 97.8625 1.42188C97.7375 1.63021 97.5917 1.77604 97.425 1.85938C97.2583 1.93229 97.0813 1.98958 96.8938 2.03125C96.7167 2.0625 96.5344 2.08854 96.3469 2.10938C96.1698 2.13021 96.0083 2.1875 95.8625 2.28125C95.7167 2.36458 95.5969 2.5 95.5031 2.6875C95.4198 2.875 95.3781 3.15104 95.3781 3.51562V3.59375C95.3781 3.625 95.3833 3.69792 95.3938 3.8125C95.4042 3.91667 95.4146 4.03646 95.425 4.17188C95.4458 4.30729 95.4615 4.43229 95.4719 4.54688C95.4823 4.65104 95.4875 4.71875 95.4875 4.75V6.5625C95.4875 6.59375 95.4927 6.6875 95.5031 6.84375C95.524 6.98958 95.5396 7.15104 95.55 7.32812C95.5708 7.50521 95.5865 7.67188 95.5969 7.82812C95.6177 7.98438 95.6281 8.08854 95.6281 8.14062V9.67188C95.6281 9.69271 95.6333 9.72917 95.6438 9.78125C95.6542 9.82292 95.6646 9.86979 95.675 9.92188C95.6958 9.97396 95.7115 10.026 95.7219 10.0781C95.7323 10.1198 95.7375 10.1458 95.7375 10.1562C95.7583 10.2604 95.7688 10.3646 95.7688 10.4688C95.7688 10.5729 95.774 10.6667 95.7844 10.75C95.8052 10.8333 95.8417 10.901 95.8938 10.9531C95.9458 11.0052 96.0344 11.0312 96.1594 11.0312C96.2531 11.0312 96.3365 11.0052 96.4094 10.9531C96.4823 10.8906 96.5448 10.8229 96.5969 10.75C96.6594 10.6667 96.7115 10.5833 96.7531 10.5C96.7948 10.4062 96.8417 10.3281 96.8938 10.2656C97.1333 10.0052 97.3521 9.76562 97.55 9.54688C97.7583 9.31771 97.951 9.09375 98.1281 8.875C98.3052 8.64583 98.4771 8.40625 98.6438 8.15625C98.8208 7.89583 99.0031 7.60938 99.1906 7.29688C99.2115 7.26562 99.2323 7.20833 99.2531 7.125C99.2844 7.03125 99.3 6.96875 99.3 6.9375C99.3417 6.88542 99.4146 6.79688 99.5188 6.67188C99.6333 6.54688 99.7479 6.41667 99.8625 6.28125C99.9771 6.13542 100.081 6 100.175 5.875C100.279 5.75 100.347 5.65625 100.378 5.59375C100.389 5.58333 100.404 5.55208 100.425 5.5C100.446 5.44792 100.472 5.39583 100.503 5.34375C100.534 5.29167 100.56 5.24479 100.581 5.20312C100.602 5.15104 100.618 5.11979 100.628 5.10938C100.722 4.96354 100.816 4.82812 100.909 4.70312C101.014 4.56771 101.102 4.4375 101.175 4.3125C101.258 4.17708 101.326 4.03646 101.378 3.89062C101.43 3.73438 101.456 3.5625 101.456 3.375V3C101.435 2.95833 101.383 2.89583 101.3 2.8125C101.227 2.71875 101.144 2.625 101.05 2.53125C100.967 2.4375 100.883 2.35417 100.8 2.28125C100.717 2.20833 100.659 2.15625 100.628 2.125C100.555 2.0625 100.461 2.01562 100.347 1.98438C100.232 1.94271 100.123 1.90104 100.019 1.85938C99.9146 1.80729 99.8208 1.74479 99.7375 1.67188C99.6646 1.59896 99.6281 1.5 99.6281 1.375C99.6281 1.27083 99.6594 1.19792 99.7219 1.15625C99.7948 1.10417 99.8781 1.06771 99.9719 1.04688C100.066 1.02604 100.165 1.01042 100.269 1C100.373 0.989583 100.456 0.96875 100.519 0.9375C100.571 0.958333 100.675 0.973958 100.831 0.984375C100.988 0.994792 101.17 1 101.378 1C101.566 1 101.743 0.994792 101.909 0.984375C102.086 0.973958 102.217 0.958333 102.3 0.9375C102.321 0.9375 102.368 0.932292 102.441 0.921875C102.514 0.911458 102.586 0.901042 102.659 0.890625C102.743 0.869792 102.816 0.854167 102.878 0.84375C102.951 0.833333 102.993 0.828125 103.003 0.828125C103.034 0.828125 103.102 0.833333 103.206 0.84375C103.31 0.854167 103.425 0.869792 103.55 0.890625C103.675 0.901042 103.79 0.911458 103.894 0.921875C104.008 0.932292 104.081 0.9375 104.113 0.9375H104.894H105.659C105.774 0.84375 105.92 0.78125 106.097 0.75C106.274 0.71875 106.451 0.703125 106.628 0.703125C106.764 0.703125 106.883 0.708333 106.988 0.71875C107.102 0.71875 107.217 0.71875 107.331 0.71875H107.956C107.967 0.71875 108.008 0.729167 108.081 0.75C108.154 0.770833 108.232 0.791667 108.316 0.8125C108.399 0.833333 108.482 0.859375 108.566 0.890625C108.659 0.911458 108.727 0.927083 108.769 0.9375C108.779 0.9375 108.795 0.958333 108.816 1C108.836 1.03125 108.852 1.04688 108.863 1.04688V1.10938C108.863 1.22396 108.842 1.3125 108.8 1.375C108.758 1.4375 108.701 1.48958 108.628 1.53125C108.566 1.5625 108.493 1.58854 108.409 1.60938C108.326 1.61979 108.243 1.63021 108.159 1.64062C107.764 1.73438 107.321 1.82292 106.831 1.90625C106.352 1.98958 105.915 2.09896 105.519 2.23438C105.477 2.25521 105.399 2.30208 105.284 2.375C105.17 2.4375 105.102 2.48438 105.081 2.51562C105.071 2.51562 105.04 2.53125 104.988 2.5625C104.935 2.59375 104.883 2.63021 104.831 2.67188C104.779 2.70312 104.727 2.73958 104.675 2.78125C104.633 2.8125 104.607 2.82812 104.597 2.82812C104.566 2.84896 104.503 2.88542 104.409 2.9375C104.316 2.97917 104.211 3.03125 104.097 3.09375C103.993 3.14583 103.894 3.19792 103.8 3.25C103.706 3.29167 103.649 3.31771 103.628 3.32812C103.607 3.32812 103.581 3.34375 103.55 3.375C103.529 3.40625 103.508 3.43229 103.488 3.45312C103.456 3.52604 103.42 3.58333 103.378 3.625C103.347 3.67708 103.316 3.71875 103.284 3.75C103.264 3.78125 103.253 3.80208 103.253 3.8125C103.232 3.84375 103.18 3.90104 103.097 3.98438C103.014 4.05729 102.925 4.14062 102.831 4.23438C102.738 4.31771 102.649 4.40104 102.566 4.48438C102.482 4.55729 102.43 4.60938 102.409 4.64062C102.243 4.82812 102.092 5.01042 101.956 5.1875C101.831 5.35417 101.696 5.52083 101.55 5.6875C101.415 5.84375 101.264 5.99479 101.097 6.14062C100.93 6.28646 100.738 6.42708 100.519 6.5625C100.488 6.73958 100.43 6.88542 100.347 7C100.274 7.11458 100.185 7.21875 100.081 7.3125C99.9875 7.39583 99.8833 7.47917 99.7688 7.5625C99.6542 7.64583 99.5448 7.74479 99.4406 7.85938C99.3677 7.93229 99.274 8.03646 99.1594 8.17188C99.0448 8.29688 98.9354 8.43229 98.8313 8.57812C98.7271 8.71354 98.6385 8.84896 98.5656 8.98438C98.4927 9.11979 98.4563 9.23438 98.4563 9.32812C98.4563 9.39062 98.4615 9.4375 98.4719 9.46875C98.4719 9.5 98.4771 9.53125 98.4875 9.5625C98.4979 9.58333 98.5292 9.61979 98.5813 9.67188C98.6438 9.72396 98.7063 9.78646 98.7688 9.85938C98.8417 9.92188 98.9094 9.98438 98.9719 10.0469C99.0344 10.099 99.0708 10.1354 99.0813 10.1562C99.0917 10.1771 99.1125 10.224 99.1438 10.2969C99.1854 10.3594 99.2219 10.4323 99.2531 10.5156C99.2948 10.5885 99.3313 10.6615 99.3625 10.7344C99.3938 10.7969 99.4198 10.8333 99.4406 10.8438C99.451 10.8646 99.4823 10.9115 99.5344 10.9844C99.5969 11.0573 99.6594 11.1354 99.7219 11.2188C99.7948 11.3021 99.8573 11.3802 99.9094 11.4531C99.9719 11.526 100.014 11.5729 100.034 11.5938C100.045 11.6042 100.066 11.6406 100.097 11.7031C100.128 11.7656 100.165 11.8333 100.206 11.9062C100.248 11.9688 100.284 12.0312 100.316 12.0938C100.347 12.1458 100.368 12.1771 100.378 12.1875C100.389 12.1979 100.409 12.2292 100.441 12.2812C100.482 12.3229 100.519 12.3698 100.55 12.4219C100.592 12.474 100.628 12.526 100.659 12.5781C100.701 12.6198 100.732 12.651 100.753 12.6719C100.774 12.7031 100.836 12.7812 100.941 12.9062C101.055 13.0312 101.175 13.1667 101.3 13.3125C101.425 13.4583 101.54 13.599 101.644 13.7344C101.748 13.8594 101.816 13.9375 101.847 13.9688C101.993 14.1875 102.139 14.4375 102.284 14.7188C102.43 14.9896 102.597 15.2292 102.784 15.4375C102.805 15.4688 102.863 15.5312 102.956 15.625C103.05 15.7083 103.149 15.8021 103.253 15.9062C103.368 16.0104 103.472 16.1042 103.566 16.1875C103.659 16.2708 103.717 16.3229 103.738 16.3438C103.748 16.3646 103.764 16.4115 103.784 16.4844C103.805 16.5573 103.826 16.6042 103.847 16.625C103.868 16.625 103.899 16.651 103.941 16.7031C103.993 16.7448 104.045 16.7917 104.097 16.8438C104.159 16.8958 104.211 16.9479 104.253 17C104.295 17.0417 104.321 17.0677 104.331 17.0781C104.342 17.099 104.363 17.1458 104.394 17.2188C104.435 17.2917 104.477 17.3698 104.519 17.4531C104.56 17.5365 104.597 17.6146 104.628 17.6875C104.67 17.7604 104.696 17.8021 104.706 17.8125C104.758 17.8958 104.826 18.0104 104.909 18.1562C105.003 18.2917 105.097 18.4323 105.191 18.5781C105.295 18.724 105.394 18.8594 105.488 18.9844C105.581 19.099 105.67 19.1771 105.753 19.2188C105.774 19.2396 105.831 19.2656 105.925 19.2969C106.029 19.3177 106.092 19.3333 106.113 19.3438C106.133 19.3438 106.159 19.3646 106.191 19.4062C106.232 19.4375 106.253 19.4635 106.253 19.4844C106.524 19.8177 106.805 20.1302 107.097 20.4219C107.389 20.7031 107.701 20.9479 108.034 21.1562C108.045 21.1667 108.081 21.1823 108.144 21.2031C108.206 21.224 108.269 21.25 108.331 21.2812C108.404 21.3125 108.472 21.3385 108.534 21.3594C108.597 21.3802 108.639 21.3958 108.659 21.4062C108.659 21.4167 108.675 21.4323 108.706 21.4531C108.738 21.474 108.774 21.5 108.816 21.5312C108.857 21.5521 108.894 21.5729 108.925 21.5938C108.967 21.6146 108.993 21.625 109.003 21.625C109.107 21.6875 109.284 21.7448 109.534 21.7969C109.795 21.8385 110.055 21.8958 110.316 21.9688C110.576 22.0417 110.805 22.1406 111.003 22.2656C111.201 22.3802 111.3 22.5417 111.3 22.75C111.3 22.7812 111.295 22.8177 111.284 22.8594C111.274 22.901 111.269 22.9323 111.269 22.9531C110.998 23.0156 110.743 23.0521 110.503 23.0625C110.264 23.0729 110.008 23.0781 109.738 23.0781C109.519 23.0781 109.279 23.0729 109.019 23.0625C108.758 23.0521 108.545 23.0156 108.378 22.9531H105.409C105.128 22.9531 104.857 22.8438 104.597 22.625C104.347 22.4062 104.139 22.1875 103.972 21.9688C103.972 21.9583 103.941 21.9115 103.878 21.8281C103.826 21.7344 103.758 21.6354 103.675 21.5312C103.602 21.4167 103.524 21.3021 103.441 21.1875C103.357 21.0729 103.295 20.9844 103.253 20.9219C103.107 20.6823 102.946 20.4583 102.769 20.25C102.592 20.0417 102.435 19.8229 102.3 19.5938C102.29 19.5833 102.258 19.5417 102.206 19.4688C102.165 19.3854 102.118 19.2969 102.066 19.2031C102.024 19.099 101.977 19.0052 101.925 18.9219C101.883 18.8385 101.857 18.7812 101.847 18.75C101.816 18.7188 101.743 18.651 101.628 18.5469C101.514 18.4323 101.383 18.3073 101.238 18.1719C101.102 18.0365 100.972 17.9115 100.847 17.7969C100.732 17.6719 100.659 17.5938 100.628 17.5625C100.607 17.5521 100.566 17.5052 100.503 17.4219C100.451 17.3281 100.409 17.2604 100.378 17.2188C100.17 16.8646 99.9406 16.5573 99.6906 16.2969C99.451 16.026 99.2115 15.7396 98.9719 15.4375C98.9615 15.4062 98.9198 15.3385 98.8469 15.2344C98.774 15.1302 98.7271 15.0677 98.7063 15.0469C98.6542 14.974 98.5865 14.8802 98.5031 14.7656C98.4198 14.651 98.3313 14.5365 98.2375 14.4219C98.1438 14.3073 98.0604 14.2083 97.9875 14.125C97.9146 14.0417 97.8729 13.9896 97.8625 13.9688C97.8625 13.9583 97.8365 13.9427 97.7844 13.9219C97.7427 13.901 97.6906 13.8802 97.6281 13.8594C97.576 13.8281 97.524 13.8073 97.4719 13.7969C97.4198 13.776 97.3885 13.7604 97.3781 13.75C97.3781 13.7396 97.3625 13.6823 97.3313 13.5781C97.3104 13.4635 97.2896 13.3958 97.2688 13.375C97.2688 13.3646 97.2375 13.3385 97.175 13.2969C97.1229 13.2448 97.0552 13.1875 96.9719 13.125C96.899 13.0625 96.8208 13 96.7375 12.9375C96.6646 12.875 96.6073 12.8229 96.5656 12.7812C96.4302 12.6875 96.3 12.5885 96.175 12.4844C96.0604 12.3802 95.9146 12.3281 95.7375 12.3281V17.7031C95.7479 17.7448 95.7688 17.8229 95.8 17.9375C95.8313 18.0417 95.8469 18.1146 95.8469 18.1562V19.5938C95.8469 19.6458 95.8573 19.75 95.8781 19.9062C95.9094 20.0521 95.9354 20.2135 95.9563 20.3906C95.9875 20.5677 96.0135 20.7448 96.0344 20.9219C96.0656 21.0885 96.0917 21.2135 96.1125 21.2969C96.1333 21.4219 96.175 21.5156 96.2375 21.5781C96.3 21.6302 96.3729 21.6667 96.4563 21.6875C96.5396 21.7083 96.6333 21.724 96.7375 21.7344C96.8417 21.7344 96.9406 21.75 97.0344 21.7812C97.0656 21.7917 97.1438 21.8125 97.2688 21.8438C97.4042 21.875 97.5448 21.9115 97.6906 21.9531C97.8469 21.9844 97.9875 22.0156 98.1125 22.0469C98.2479 22.0781 98.326 22.099 98.3469 22.1094C98.4302 22.1198 98.524 22.1302 98.6281 22.1406C98.7427 22.151 98.8469 22.1719 98.9406 22.2031C99.0448 22.2344 99.1281 22.2865 99.1906 22.3594C99.2635 22.4219 99.3 22.5104 99.3 22.625C99.3 22.8333 99.2323 22.9583 99.0969 23C98.9615 23.0521 98.8052 23.0781 98.6281 23.0781H98.1125C98.0917 23.0781 98.05 23.0833 97.9875 23.0938C97.9354 23.1042 97.8729 23.1146 97.8 23.125C97.7375 23.1458 97.675 23.1615 97.6125 23.1719C97.5604 23.1823 97.5292 23.1875 97.5188 23.1875H97.2688C96.9667 23.1875 96.6698 23.1458 96.3781 23.0625C96.0969 22.9896 95.8 22.9531 95.4875 22.9531ZM128.228 20.7344C128.27 20.7656 128.343 20.8125 128.447 20.875C128.561 20.9271 128.681 20.9896 128.806 21.0625C128.931 21.125 129.046 21.1875 129.15 21.25C129.265 21.3021 129.343 21.3438 129.384 21.375C129.405 21.3958 129.442 21.4375 129.494 21.5C129.546 21.5625 129.582 21.5938 129.603 21.5938C129.624 21.6146 129.666 21.6406 129.728 21.6719C129.801 21.6927 129.848 21.7135 129.869 21.7344C129.879 21.7344 129.905 21.7396 129.947 21.75C129.999 21.7604 130.051 21.7708 130.103 21.7812C130.155 21.7812 130.207 21.7865 130.259 21.7969C130.311 21.8073 130.343 21.8125 130.353 21.8125C130.364 21.8229 130.39 21.8438 130.431 21.875C130.483 21.9062 130.53 21.9375 130.572 21.9688C130.624 22 130.671 22.026 130.713 22.0469C130.754 22.0677 130.78 22.0781 130.791 22.0781C130.811 22.0781 130.853 22.0833 130.916 22.0938C130.989 22.1042 131.046 22.1094 131.088 22.1094C131.129 22.1094 131.186 22.1042 131.259 22.0938C131.332 22.0833 131.39 22.0781 131.431 22.0781C131.442 22.0781 131.473 22.0729 131.525 22.0625C131.577 22.0521 131.634 22.0417 131.697 22.0312C131.77 22.0104 131.838 21.9948 131.9 21.9844C131.963 21.974 132.004 21.9688 132.025 21.9688C132.254 21.9271 132.478 21.9062 132.697 21.9062C132.926 21.9062 133.145 21.8958 133.353 21.875C133.561 21.8542 133.765 21.8125 133.963 21.75C134.16 21.6771 134.348 21.5521 134.525 21.375C134.525 21.3542 134.541 21.3229 134.572 21.2812C134.614 21.2292 134.65 21.1771 134.681 21.125C134.723 21.0625 134.759 21.0104 134.791 20.9688C134.822 20.9271 134.838 20.901 134.838 20.8906C134.879 20.849 134.963 20.7708 135.088 20.6562C135.213 20.5417 135.343 20.4167 135.478 20.2812C135.614 20.1458 135.739 20.026 135.853 19.9219C135.978 19.8073 136.056 19.7344 136.088 19.7031C136.254 19.4948 136.39 19.276 136.494 19.0469C136.608 18.8073 136.733 18.5833 136.869 18.375C136.9 18.3542 136.947 18.2969 137.009 18.2031C137.082 18.099 137.119 18.0417 137.119 18.0312C137.327 17.6042 137.515 17.1927 137.681 16.7969C137.858 16.3906 138.009 15.9896 138.134 15.5938C138.259 15.1875 138.358 14.776 138.431 14.3594C138.504 13.9427 138.541 13.5 138.541 13.0312C138.541 12.375 138.494 11.6302 138.4 10.7969C138.317 9.96354 138.176 9.13021 137.978 8.29688C137.78 7.45312 137.525 6.65104 137.213 5.89062C136.91 5.13021 136.535 4.48958 136.088 3.96875C136.056 3.94792 136.004 3.91146 135.931 3.85938C135.858 3.80729 135.811 3.77083 135.791 3.75C135.791 3.70833 135.775 3.64062 135.744 3.54688C135.723 3.44271 135.702 3.375 135.681 3.34375C135.671 3.34375 135.645 3.32292 135.603 3.28125C135.561 3.23958 135.515 3.19271 135.463 3.14062C135.421 3.08854 135.374 3.04167 135.322 3C135.28 2.94792 135.249 2.91146 135.228 2.89062C135.03 2.72396 134.817 2.59375 134.588 2.5C134.358 2.40625 134.129 2.30208 133.9 2.1875C133.463 1.94792 133.03 1.74479 132.603 1.57812C132.176 1.41146 131.697 1.32812 131.166 1.32812C130.864 1.32812 130.567 1.36979 130.275 1.45312C129.994 1.53646 129.697 1.61979 129.384 1.70312C129.218 1.75521 129.046 1.84896 128.869 1.98438C128.692 2.11979 128.509 2.27083 128.322 2.4375C128.145 2.60417 127.973 2.77083 127.806 2.9375C127.64 3.10417 127.489 3.23958 127.353 3.34375C127.332 3.36458 127.291 3.40104 127.228 3.45312C127.166 3.50521 127.098 3.5625 127.025 3.625C126.963 3.67708 126.9 3.72917 126.838 3.78125C126.775 3.82292 126.739 3.84896 126.728 3.85938C126.634 4.02604 126.541 4.18229 126.447 4.32812C126.364 4.45312 126.285 4.58333 126.213 4.71875C126.14 4.85417 126.077 4.96354 126.025 5.04688C125.931 5.21354 125.869 5.39062 125.838 5.57812C125.817 5.75521 125.765 5.9375 125.681 6.125C125.494 6.625 125.285 7.13021 125.056 7.64062C124.838 8.15104 124.692 8.67708 124.619 9.21875C124.619 9.25 124.614 9.33333 124.603 9.46875C124.593 9.60417 124.577 9.75521 124.556 9.92188C124.546 10.0781 124.535 10.2344 124.525 10.3906C124.515 10.5365 124.504 10.6302 124.494 10.6719L124.431 10.7656C124.4 10.8177 124.384 10.8594 124.384 10.8906V11.4375V11.9375C124.405 11.9583 124.426 11.9844 124.447 12.0156C124.478 12.0365 124.494 12.0573 124.494 12.0781C124.64 12.4115 124.723 12.7604 124.744 13.125C124.775 13.4896 124.817 13.8542 124.869 14.2188C124.942 14.7083 125.056 15.1667 125.213 15.5938C125.379 16.0208 125.535 16.4792 125.681 16.9688C125.681 16.9896 125.702 17.0677 125.744 17.2031C125.796 17.3281 125.822 17.4115 125.822 17.4531C125.832 17.474 125.884 17.5469 125.978 17.6719C126.082 17.7969 126.145 17.8854 126.166 17.9375C126.186 18.0104 126.207 18.0781 126.228 18.1406C126.249 18.1927 126.265 18.2448 126.275 18.2969C126.296 18.3385 126.306 18.3646 126.306 18.375C126.317 18.4062 126.364 18.4792 126.447 18.5938C126.53 18.6979 126.619 18.8125 126.713 18.9375C126.806 19.0521 126.89 19.1615 126.963 19.2656C127.046 19.3594 127.098 19.4219 127.119 19.4531L127.228 19.7031C127.249 19.724 127.301 19.776 127.384 19.8594C127.468 19.9323 127.556 20.0156 127.65 20.1094C127.754 20.2031 127.848 20.2917 127.931 20.375C128.015 20.4583 128.067 20.5052 128.088 20.5156C128.088 20.5365 128.103 20.5729 128.134 20.625C128.166 20.6771 128.197 20.7135 128.228 20.7344ZM129.166 23C129.124 23 129.072 22.9896 129.009 22.9688C128.947 22.9375 128.91 22.9219 128.9 22.9219C128.879 22.9115 128.817 22.8906 128.713 22.8594C128.608 22.8177 128.494 22.7812 128.369 22.75C128.244 22.7083 128.124 22.6719 128.009 22.6406C127.905 22.599 127.843 22.5729 127.822 22.5625C127.697 22.5 127.582 22.4427 127.478 22.3906C127.384 22.3281 127.291 22.2656 127.197 22.2031C127.114 22.1406 127.025 22.0781 126.931 22.0156C126.838 21.9427 126.733 21.875 126.619 21.8125C126.598 21.8021 126.556 21.7865 126.494 21.7656C126.431 21.7344 126.358 21.7031 126.275 21.6719C126.202 21.6302 126.134 21.5938 126.072 21.5625C126.009 21.5312 125.968 21.5052 125.947 21.4844C125.53 21.2969 125.119 21.0469 124.713 20.7344C124.317 20.4219 123.942 20.0781 123.588 19.7031C123.233 19.3177 122.916 18.9115 122.634 18.4844C122.364 18.0469 122.145 17.6146 121.978 17.1875C121.978 17.1667 121.968 17.1146 121.947 17.0312C121.936 16.9479 121.916 16.8594 121.884 16.7656C121.864 16.6719 121.838 16.5833 121.806 16.5C121.785 16.4167 121.77 16.3646 121.759 16.3438C121.759 16.3438 121.749 16.3281 121.728 16.2969C121.707 16.2552 121.681 16.2135 121.65 16.1719C121.619 16.1302 121.588 16.0938 121.556 16.0625C121.525 16.0208 121.504 16 121.494 16C121.494 15.9896 121.489 15.9635 121.478 15.9219C121.468 15.8698 121.457 15.8177 121.447 15.7656C121.447 15.7135 121.442 15.6615 121.431 15.6094C121.421 15.5573 121.416 15.526 121.416 15.5156C121.405 15.5052 121.39 15.4792 121.369 15.4375C121.348 15.3958 121.322 15.349 121.291 15.2969C121.27 15.2448 121.249 15.1979 121.228 15.1562C121.207 15.1042 121.197 15.0625 121.197 15.0312C121.166 15 121.129 14.9115 121.088 14.7656C121.046 14.6094 121.025 14.5 121.025 14.4375C121.015 14.3229 120.994 14.151 120.963 13.9219C120.942 13.6823 120.921 13.4427 120.9 13.2031C120.879 12.9635 120.858 12.7448 120.838 12.5469C120.817 12.3385 120.806 12.2083 120.806 12.1562V11.2969C120.806 10.6719 120.858 10.0625 120.963 9.46875C121.067 8.875 121.218 8.26042 121.416 7.625C121.457 7.51042 121.509 7.42188 121.572 7.35938C121.645 7.29688 121.707 7.19271 121.759 7.04688C121.801 6.94271 121.843 6.79688 121.884 6.60938C121.936 6.41146 121.989 6.21354 122.041 6.01562C122.103 5.80729 122.166 5.61458 122.228 5.4375C122.301 5.25 122.379 5.11979 122.463 5.04688L124.869 2.67188C125.129 2.55729 125.374 2.39062 125.603 2.17188C125.832 1.95312 126.067 1.75 126.306 1.5625C126.317 1.5625 126.348 1.55729 126.4 1.54688C126.463 1.52604 126.504 1.50521 126.525 1.48438C126.827 1.34896 127.14 1.20833 127.463 1.0625C127.785 0.90625 128.103 0.802083 128.416 0.75C128.426 0.75 128.447 0.744792 128.478 0.734375C128.509 0.713542 128.551 0.703125 128.603 0.703125C128.686 0.703125 128.77 0.692708 128.853 0.671875C128.936 0.651042 128.989 0.640625 129.009 0.640625C129.02 0.640625 129.067 0.635417 129.15 0.625C129.233 0.614583 129.327 0.604167 129.431 0.59375C129.535 0.572917 129.64 0.552083 129.744 0.53125C129.858 0.510417 129.947 0.494792 130.009 0.484375C130.009 0.453125 130.061 0.432292 130.166 0.421875C130.27 0.411458 130.332 0.40625 130.353 0.40625C130.374 0.40625 130.421 0.40625 130.494 0.40625C130.577 0.395833 130.666 0.385417 130.759 0.375C130.853 0.364583 130.936 0.359375 131.009 0.359375C131.093 0.348958 131.145 0.34375 131.166 0.34375C131.186 0.34375 131.244 0.333333 131.338 0.3125C131.431 0.28125 131.494 0.265625 131.525 0.265625H131.681C131.994 0.265625 132.364 0.286458 132.791 0.328125C133.228 0.369792 133.666 0.4375 134.103 0.53125C134.551 0.614583 134.978 0.723958 135.384 0.859375C135.801 0.984375 136.145 1.14062 136.416 1.32812C136.416 1.32812 136.431 1.34896 136.463 1.39062C136.504 1.42188 136.546 1.46354 136.588 1.51562C136.629 1.55729 136.666 1.59896 136.697 1.64062C136.739 1.67188 136.759 1.69271 136.759 1.70312C136.874 1.78646 136.989 1.85417 137.103 1.90625C137.218 1.94792 137.332 1.98958 137.447 2.03125C137.561 2.07292 137.671 2.11979 137.775 2.17188C137.879 2.22396 137.983 2.30208 138.088 2.40625C138.463 2.76042 138.791 3.10417 139.072 3.4375C139.364 3.76042 139.624 4.09375 139.853 4.4375C140.093 4.78125 140.317 5.15104 140.525 5.54688C140.733 5.93229 140.947 6.35938 141.166 6.82812C141.176 6.84896 141.202 6.90104 141.244 6.98438C141.285 7.05729 141.322 7.14062 141.353 7.23438C141.395 7.31771 141.431 7.40104 141.463 7.48438C141.504 7.56771 141.53 7.61458 141.541 7.625C141.541 7.65625 141.556 7.69271 141.588 7.73438C141.608 7.76562 141.629 7.79167 141.65 7.8125C141.775 7.98958 141.848 8.1875 141.869 8.40625C141.9 8.625 141.916 8.84896 141.916 9.07812C141.926 9.30729 141.936 9.53646 141.947 9.76562C141.957 9.99479 142.004 10.2083 142.088 10.4062C142.098 10.4583 142.103 10.5469 142.103 10.6719C142.114 10.7865 142.119 10.9167 142.119 11.0625C142.129 11.1979 142.134 11.3281 142.134 11.4531C142.134 11.5781 142.134 11.6615 142.134 11.7031C142.134 12.2865 142.114 12.8698 142.072 13.4531C142.041 14.0365 141.983 14.6146 141.9 15.1875C141.9 15.2083 141.884 15.2604 141.853 15.3438C141.822 15.4271 141.791 15.4844 141.759 15.5156C141.759 15.526 141.749 15.5573 141.728 15.6094C141.707 15.6615 141.681 15.7135 141.65 15.7656C141.619 15.8177 141.593 15.8698 141.572 15.9219C141.551 15.9635 141.541 15.9896 141.541 16C141.53 16.0208 141.515 16.0729 141.494 16.1562C141.483 16.2396 141.473 16.3281 141.463 16.4219C141.452 16.5156 141.442 16.6042 141.431 16.6875C141.421 16.7708 141.416 16.8229 141.416 16.8438C141.343 17.0833 141.218 17.3073 141.041 17.5156C140.864 17.7135 140.718 17.9271 140.603 18.1562C140.457 18.375 140.317 18.599 140.181 18.8281C140.046 19.0573 139.895 19.2656 139.728 19.4531C139.718 19.4844 139.681 19.5365 139.619 19.6094C139.567 19.6719 139.535 19.7031 139.525 19.7031C139.119 20.0156 138.739 20.3281 138.384 20.6406C138.03 20.9427 137.65 21.224 137.244 21.4844C137.129 21.5573 137.009 21.6615 136.884 21.7969C136.77 21.9219 136.655 22.0156 136.541 22.0781C136.509 22.099 136.426 22.1354 136.291 22.1875C136.166 22.2396 136.025 22.3021 135.869 22.375C135.723 22.4375 135.588 22.5 135.463 22.5625C135.338 22.6146 135.259 22.651 135.228 22.6719C135.207 22.6719 135.181 22.6771 135.15 22.6875C135.129 22.6979 135.108 22.7083 135.088 22.7188C135.056 22.7292 135.03 22.7396 135.009 22.75C134.978 22.7708 134.905 22.7917 134.791 22.8125C134.686 22.8229 134.572 22.8385 134.447 22.8594C134.322 22.8802 134.207 22.8958 134.103 22.9062C133.999 22.9167 133.931 22.9219 133.9 22.9219C133.879 22.9427 133.822 22.9635 133.728 22.9844C133.634 22.9948 133.572 23 133.541 23C133.301 23.0938 133.03 23.1615 132.728 23.2031C132.436 23.2448 132.171 23.2656 131.931 23.2656C131.869 23.2656 131.78 23.2604 131.666 23.25C131.561 23.25 131.457 23.2448 131.353 23.2344C131.249 23.2344 131.155 23.2292 131.072 23.2188C130.999 23.2188 130.957 23.2188 130.947 23.2188C130.874 23.2188 130.749 23.2083 130.572 23.1875C130.405 23.1771 130.228 23.1615 130.041 23.1406C129.853 23.1198 129.676 23.0938 129.509 23.0625C129.343 23.0417 129.228 23.0208 129.166 23Z" fill="white"/>
</svg>
